# xmcd
#
# Track frame offsets: 
#        150
#        18904
#        31685
#        42892
#        54247
#        67491
#        84184
#        101608
#        114747
#        129122
#        147478
#        165581
#        184224
#
# Disc length: 2717 seconds
#
# Revision: 0
# Processed by: cddbd v1.5.2PL0 Copyright (c) Steve Scherf et al.
# Submitted via: ExactAudioCopy v0.95b4
#
DISCID=a70a9b0d
DTITLE=The Futureheads - The Chaos
DYEAR=2010
DGENRE=New Wave
TTITLE0=The Chaos
TTITLE1=Struck Dumb
TTITLE2=Heartbeat Song
TTITLE3=Stop the Noise
TTITLE4=The Connector
TTITLE5=I Can Do That
TTITLE6=Sun Goes Down
TTITLE7=This is the Life
TTITLE8=The Baron
TTITLE9=Dart at the Map
TTITLE10=Jupiter
TTITLE11=Bricks and Stones
TTITLE12=Local Man of the World
EXTD=
EXTT0=
EXTT1=
EXTT2=
EXTT3=
EXTT4=
EXTT5=
EXTT6=
EXTT7=
EXTT8=
EXTT9=
EXTT10=
EXTT11=
EXTT12=
PLAYORDER=
